<svg xmlns="http://www.w3.org/2000/svg" viewBox="0 0 73.94 43.95"><defs><style>.cls-1{fill:#228b22;}</style></defs><g id="Layer_2" data-name="Layer 2"><g id="Layer_1-2" data-name="Layer 1"><path class="cls-1" d="M5.2,15.36a6.77,6.77,0,0,1-.61,3.36,2.56,2.56,0,0,1-2.13.72,2.37,2.37,0,0,1-1.84-.65A2.68,2.68,0,0,1,0,16.88c.05-.73.07-1.28.07-1.66L.42,3.62a2.67,2.67,0,0,1,.7-1.88,2.85,2.85,0,0,1,2-.58H33.64a2.81,2.81,0,0,1,2,.58,2.5,2.5,0,0,1,.67,1.88l.39,11.6q0,.63,0,1.2c0,.37,0,.55,0,.53a2.42,2.42,0,0,1-.67,1.88,2.87,2.87,0,0,1-2,.61,2.26,2.26,0,0,1-1.94-.72,7,7,0,0,1-.59-3.36l-.36-9.14H21.09V37.9h6.79a3.2,3.2,0,0,1,2.14.58,2.3,2.3,0,0,1,.67,1.84,2.61,2.61,0,0,1-.63,1.89,2.45,2.45,0,0,1-1.83.65H8.51a2.45,2.45,0,0,1-1.83-.65,2.61,2.61,0,0,1-.63-1.89,2.31,2.31,0,0,1,.68-1.86,3.79,3.79,0,0,1,2.34-.56h6.57V6.22H5.55Z"/><path class="cls-1" d="M65.54,36.78V28.44H56.82a2,2,0,0,1-1.57-.56,2.56,2.56,0,0,1-.5-1.72,2.77,2.77,0,0,1,.45-1.83A2.39,2.39,0,0,1,57,23.84H72.15a1.57,1.57,0,0,1,1.35.58,2.86,2.86,0,0,1,.44,1.74A2.26,2.26,0,0,1,73.36,28a3.24,3.24,0,0,1-2.06.49h-.45V39a2.87,2.87,0,0,1-.21,1.32,2.11,2.11,0,0,1-.85.72,20,20,0,0,1-5.83,2,36.27,36.27,0,0,1-7.77.85q-9.42,0-15.23-6t-5.8-15.68q0-9.66,5.68-16A18.65,18.65,0,0,1,55.31,0a21.94,21.94,0,0,1,4.8.54,31,31,0,0,1,5,1.64,2.62,2.62,0,0,1,1-1.32,2.88,2.88,0,0,1,1.6-.4,2.3,2.3,0,0,1,2.2,1c.36.66.54,2.17.54,4.54v4.78a3.71,3.71,0,0,1-.59,2.41,2.68,2.68,0,0,1-2.08.68c-1.22,0-2.09-.75-2.63-2.25-.19-.44-.34-.78-.46-1a9.85,9.85,0,0,0-3.73-4.29,10.33,10.33,0,0,0-5.55-1.51A12.4,12.4,0,0,0,45.32,9.33q-3.76,4.55-3.76,12.27,0,8,4.15,12.68a14,14,0,0,0,11,4.71,17.27,17.27,0,0,0,4.13-.53A26.91,26.91,0,0,0,65.54,36.78Z"/></g></g></svg>