<svg xmlns="http://www.w3.org/2000/svg" viewBox="0 0 38.78 66.79"><defs><style>.cls-1{fill:#006d77;}</style></defs><g id="Layer_2" data-name="Layer 2"><g id="Layer_1-2" data-name="Layer 1"><path class="cls-1" d="M7,14.2a6.74,6.74,0,0,1-.62,3.36,2.54,2.54,0,0,1-2.12.72,2.45,2.45,0,0,1-1.85-.65,2.68,2.68,0,0,1-.61-1.92c0-.72.07-1.27.07-1.65l.35-11.6A2.67,2.67,0,0,1,3,.58a2.83,2.83,0,0,1,2-.58H35.48a2.83,2.83,0,0,1,2,.58,2.58,2.58,0,0,1,.67,1.88l.38,11.6c0,.42,0,.82,0,1.2s0,.55,0,.53a2.46,2.46,0,0,1-.67,1.88,2.89,2.89,0,0,1-2,.61A2.25,2.25,0,0,1,34,17.56a7,7,0,0,1-.6-3.36L33,5.06H22.93V36.74h6.79a3.2,3.2,0,0,1,2.14.58,2.3,2.3,0,0,1,.67,1.84A2.59,2.59,0,0,1,31.9,41a2.44,2.44,0,0,1-1.83.66H10.34A2.4,2.4,0,0,1,8.52,41a2.55,2.55,0,0,1-.64-1.88,2.28,2.28,0,0,1,.69-1.86,3.79,3.79,0,0,1,2.34-.56h6.57V5.06H7.39Z"/><path class="cls-1" d="M38.78,49a2.3,2.3,0,0,1-.58,1.79,3.26,3.26,0,0,1-2.06.49h-.46V61.86a2.87,2.87,0,0,1-.21,1.32,2.07,2.07,0,0,1-.84.72,20.06,20.06,0,0,1-5.84,2,36.13,36.13,0,0,1-7.77.85q-9.42,0-15.22-6T0,45.09q0-9.66,5.68-16a18.63,18.63,0,0,1,14.46-6.29,21.81,21.81,0,0,1,4.8.54A30.42,30.42,0,0,1,30,25a2.69,2.69,0,0,1,1-1.32,2.85,2.85,0,0,1,1.6-.4,2.31,2.31,0,0,1,2.2,1c.36.66.54,2.17.54,4.54V33.6a3.7,3.7,0,0,1-.6,2.41,2.65,2.65,0,0,1-2.07.68q-1.83,0-2.64-2.25c-.18-.44-.34-.78-.45-1a9.85,9.85,0,0,0-3.73-4.29,10.37,10.37,0,0,0-5.56-1.51,12.39,12.39,0,0,0-10,4.55Q6.4,36.72,6.4,44.44q0,8,4.15,12.68a14,14,0,0,0,11,4.71,17.27,17.27,0,0,0,4.13-.53,27.2,27.2,0,0,0,4.66-1.68V51.28H21.66a2,2,0,0,1-1.57-.56A2.51,2.51,0,0,1,19.58,49,2.71,2.71,0,0,1,20,47.17a2.37,2.37,0,0,1,1.76-.49H37a1.6,1.6,0,0,1,1.36.58A2.86,2.86,0,0,1,38.78,49"/></g></g></svg>