<svg xmlns="http://www.w3.org/2000/svg" viewBox="0 0 226.69 18.31"><defs><style>.cls-1{fill:#83c5be;}</style></defs><g id="Layer_2" data-name="Layer 2"><g id="Layer_1-2" data-name="Layer 1"><path class="cls-1" d="M2.17,6.4a2.85,2.85,0,0,1-.26,1.4A1.06,1.06,0,0,1,1,8.1a1,1,0,0,1-.77-.27A1.13,1.13,0,0,1,0,7q0-.45,0-.69L.18,1.51A1.08,1.08,0,0,1,.47.73,1.13,1.13,0,0,1,1.29.48H14a1.15,1.15,0,0,1,.82.25,1.08,1.08,0,0,1,.28.78l.16,4.83c0,.18,0,.34,0,.5a2,2,0,0,0,0,.22,1,1,0,0,1-.28.78,1.16,1.16,0,0,1-.84.26.93.93,0,0,1-.8-.3,2.89,2.89,0,0,1-.25-1.4L13,2.59H8.79v13.2h2.83a1.35,1.35,0,0,1,.89.24,1,1,0,0,1,.28.77,1.1,1.1,0,0,1-.27.79,1,1,0,0,1-.76.27H3.54a1,1,0,0,1-.76-.27,1.14,1.14,0,0,1-.26-.79A.9.9,0,0,1,2.81,16a1.51,1.51,0,0,1,1-.24H6.52V2.59H2.31Z"/><path class="cls-1" d="M23.58,15.79h1a2.2,2.2,0,0,1,1.2.24.86.86,0,0,1,.35.77,1,1,0,0,1-.31.82,2,2,0,0,1-1.15.24H19.75a1,1,0,0,1-.77-.27,1.14,1.14,0,0,1-.26-.79A.93.93,0,0,1,19,16a1.55,1.55,0,0,1,1-.24h1.33V2.46h-.85A3.25,3.25,0,0,1,19,2.26a.87.87,0,0,1-.32-.78A1,1,0,0,1,19,.73a1.08,1.08,0,0,1,.77-.25h6.18A18.22,18.22,0,0,1,29.27.7a5,5,0,0,1,1.87.72,4.65,4.65,0,0,1,1.55,1.74,5.07,5.07,0,0,1,.56,2.33,4.31,4.31,0,0,1-1,2.9,5.44,5.44,0,0,1-2.88,1.67,3.5,3.5,0,0,1,.68.52,4.69,4.69,0,0,1,.58.7l2.94,4.51H34a2,2,0,0,1,1.13.23.91.91,0,0,1,.3.78,1.14,1.14,0,0,1-.25.79,1,1,0,0,1-.76.27H32.8c-.48,0-.95-.36-1.41-1.06l-.13-.14-2.81-4.27A6.47,6.47,0,0,0,27,10.71a2.57,2.57,0,0,0-1.49-.38h-2Zm0-13.33V8.38h3a5.32,5.32,0,0,0,3.08-.74,2.53,2.53,0,0,0,1-2.21,2.6,2.6,0,0,0-1-2.22,5,5,0,0,0-3-.75Z"/><path class="cls-1" d="M39.78,17.86h-.69a1.07,1.07,0,0,1-.79-.27A1.05,1.05,0,0,1,38,16.8a.91.91,0,0,1,.32-.8,3.08,3.08,0,0,1,1.44-.21h.94V2.59h-.94a3,3,0,0,1-1.43-.22A1,1,0,0,1,38,1.54a1.06,1.06,0,0,1,.28-.8,1.15,1.15,0,0,1,.82-.26H51.88a1,1,0,0,1,.76.3,1.32,1.32,0,0,1,.25.88V5.11a1.84,1.84,0,0,1-.22,1.06.94.94,0,0,1-.79.29,1,1,0,0,1-.83-.32,3,3,0,0,1-.22-1.45V2.59H43V7.53h3.84V6.75a2.1,2.1,0,0,1,.21-1.1.86.86,0,0,1,.74-.3.78.78,0,0,1,.72.33,3.27,3.27,0,0,1,.19,1.41V9.81a3.1,3.1,0,0,1-.2,1.41.81.81,0,0,1-.73.31.76.76,0,0,1-.73-.35,3.2,3.2,0,0,1-.2-1.37V9.3H43v6.49h7.8V13.42A3,3,0,0,1,51.05,12a1.21,1.21,0,0,1,1.62,0,2,2,0,0,1,.22,1.13v3.69a1.13,1.13,0,0,1-.26.81,1,1,0,0,1-.75.28Z"/><path class="cls-1" d="M58,2.59h-.19a1.75,1.75,0,0,1-1-.24,1,1,0,0,1-.3-.81,1.09,1.09,0,0,1,.26-.79,1,1,0,0,1,.76-.27h4.44a2,2,0,0,1,1.16.24,1,1,0,0,1,.31.82,1,1,0,0,1-.33.8,1.63,1.63,0,0,1-1,.25H60.44l5,12.78L70.27,2.59h-2a1.67,1.67,0,0,1-1-.25,1,1,0,0,1-.33-.8,1,1,0,0,1,.31-.82A2,2,0,0,1,68.43.48H73a1,1,0,0,1,.76.27,1.14,1.14,0,0,1,.25.79,1,1,0,0,1-.3.81,1.8,1.8,0,0,1-1.07.24h-.18l-5.27,13.8a5,5,0,0,1-.72,1.37.9.9,0,0,1-.67.27H65c-.64,0-1.17-.52-1.57-1.55l0-.09Z"/><path class="cls-1" d="M92.38,9.16a9.71,9.71,0,0,1-2.22,6.58,7.57,7.57,0,0,1-11.38,0,9.67,9.67,0,0,1-2.23-6.57,9.73,9.73,0,0,1,2.21-6.6,7.61,7.61,0,0,1,11.4,0A9.72,9.72,0,0,1,92.38,9.16Zm-7.92,7.09a4.56,4.56,0,0,0,3.87-1.89,8.52,8.52,0,0,0,1.42-5.2A8.53,8.53,0,0,0,88.33,4a4.94,4.94,0,0,0-7.75,0,8.57,8.57,0,0,0-1.4,5.22,8.52,8.52,0,0,0,1.42,5.2A4.56,4.56,0,0,0,84.46,16.25Z"/><path class="cls-1" d="M100.39,15.79h1a2.2,2.2,0,0,1,1.2.24.83.83,0,0,1,.35.77,1,1,0,0,1-.3.82,2,2,0,0,1-1.16.24H96.56a1,1,0,0,1-.77-.27,1.14,1.14,0,0,1-.26-.79.93.93,0,0,1,.29-.77,1.55,1.55,0,0,1,1-.24h1.33V2.46h-.85a3.25,3.25,0,0,1-1.42-.2.87.87,0,0,1-.32-.78,1,1,0,0,1,.26-.75,1.08,1.08,0,0,1,.77-.25h6.18a18.42,18.42,0,0,1,3.35.22,5,5,0,0,1,1.86.72,4.65,4.65,0,0,1,1.55,1.74,5.07,5.07,0,0,1,.56,2.33,4.31,4.31,0,0,1-1,2.9,5.44,5.44,0,0,1-2.88,1.67,3.22,3.22,0,0,1,.68.52,4.15,4.15,0,0,1,.58.7l3,4.51h.48A2,2,0,0,1,112,16a.91.91,0,0,1,.3.78,1.14,1.14,0,0,1-.25.79,1,1,0,0,1-.76.27h-1.65c-.48,0-1-.36-1.41-1.06l-.13-.14-2.81-4.27a6.28,6.28,0,0,0-1.43-1.68,2.57,2.57,0,0,0-1.49-.38h-2Zm0-13.33V8.38h3a5.32,5.32,0,0,0,3.08-.74,2.53,2.53,0,0,0,1-2.21,2.57,2.57,0,0,0-1-2.22,5,5,0,0,0-3-.75Z"/><path class="cls-1" d="M146.73,15.33V11.85h-3.64a.86.86,0,0,1-.65-.23,1.07,1.07,0,0,1-.21-.72,1.11,1.11,0,0,1,.19-.76,1,1,0,0,1,.73-.21h6.33a.66.66,0,0,1,.56.24,1.16,1.16,0,0,1,.19.73.93.93,0,0,1-.25.75,1.37,1.37,0,0,1-.85.2h-.19v4.41a1.19,1.19,0,0,1-.09.55,1,1,0,0,1-.35.3,8.74,8.74,0,0,1-2.43.85,15.38,15.38,0,0,1-3.24.35,8.4,8.4,0,0,1-6.34-2.5,9,9,0,0,1-2.42-6.54,9.59,9.59,0,0,1,2.36-6.65,7.76,7.76,0,0,1,6-2.62,9.09,9.09,0,0,1,2,.23,12.67,12.67,0,0,1,2.09.68,1.08,1.08,0,0,1,.4-.55,1.23,1.23,0,0,1,.67-.17,1,1,0,0,1,.91.41,4.6,4.6,0,0,1,.23,1.89v2a1.54,1.54,0,0,1-.25,1,1.08,1.08,0,0,1-.86.28c-.51,0-.88-.31-1.1-.94-.08-.18-.14-.32-.19-.42a4.12,4.12,0,0,0-1.55-1.79A4.32,4.32,0,0,0,142.49,2a5.15,5.15,0,0,0-4.19,1.9A7.8,7.8,0,0,0,136.73,9a7.69,7.69,0,0,0,1.73,5.28,5.84,5.84,0,0,0,4.6,2,7.44,7.44,0,0,0,1.72-.22A11.63,11.63,0,0,0,146.73,15.33Z"/><path class="cls-1" d="M165.72,15.79a3.1,3.1,0,0,1,1.45.21.91.91,0,0,1,.31.8,1,1,0,0,1-.31.83,2.9,2.9,0,0,1-1.45.23h-9.58a1.09,1.09,0,0,1-.8-.27,1,1,0,0,1-.28-.79.91.91,0,0,1,.32-.8,3.16,3.16,0,0,1,1.45-.21h3.31V2.59h-3.31a3,3,0,0,1-1.43-.22.93.93,0,0,1-.34-.83,1,1,0,0,1,.28-.8,1.18,1.18,0,0,1,.83-.26h10.24a1.09,1.09,0,0,1,.8.27,1,1,0,0,1,.27.79,1,1,0,0,1-.33.83,2.92,2.92,0,0,1-1.43.22h-3.31v13.2Z"/><path class="cls-1" d="M180.3,17.86h-6.57a1,1,0,0,1-.76-.27,1,1,0,0,1-.26-.79A.91.91,0,0,1,173,16a3.46,3.46,0,0,1,1.54-.21h.48V2.59h-.48a3,3,0,0,1-1.45-.22,1,1,0,0,1-.32-.83,1.09,1.09,0,0,1,.26-.79,1,1,0,0,1,.76-.27h6.84a7.88,7.88,0,0,1,4.73,1.21A4.1,4.1,0,0,1,187,5.2a4,4,0,0,1-.5,2A3.76,3.76,0,0,1,185,8.64a4.91,4.91,0,0,1,2.35,1.6,4.17,4.17,0,0,1,.77,2.61,4.62,4.62,0,0,1-.66,2.43,5.19,5.19,0,0,1-1.86,1.8,5.39,5.39,0,0,1-1.59.59,12.3,12.3,0,0,1-2.49.19Zm-3-9.88h3.06a5.72,5.72,0,0,0,3.09-.66,2.25,2.25,0,0,0,1-2,2.35,2.35,0,0,0-.91-2,4.15,4.15,0,0,0-2.6-.7h-3.64Zm0,7.81h3.25a8,8,0,0,0,3.89-.69,2.51,2.51,0,0,0,1.12-2.31,2.53,2.53,0,0,0-1.07-2.32,7.5,7.5,0,0,0-3.79-.68h-3.4Z"/><path class="cls-1" d="M199.5,17.86h-6.56a1,1,0,0,1-.77-.27,1.09,1.09,0,0,1-.26-.79.91.91,0,0,1,.32-.8,3.46,3.46,0,0,1,1.54-.21h.49V2.59h-.49a3,3,0,0,1-1.45-.22,1,1,0,0,1-.32-.83,1.14,1.14,0,0,1,.26-.79A1,1,0,0,1,193,.48h6.84a7.9,7.9,0,0,1,4.73,1.21,4.12,4.12,0,0,1,1.62,3.51,4,4,0,0,1-.49,2,3.9,3.9,0,0,1-1.48,1.42,5,5,0,0,1,2.35,1.6,4.23,4.23,0,0,1,.77,2.61,4.62,4.62,0,0,1-.66,2.43,5.19,5.19,0,0,1-1.86,1.8,5.45,5.45,0,0,1-1.6.59,12.3,12.3,0,0,1-2.49.19ZM196.56,8h3.06a5.71,5.71,0,0,0,3.08-.66,2.25,2.25,0,0,0,1-2,2.37,2.37,0,0,0-.9-2,4.2,4.2,0,0,0-2.61-.7h-3.63Zm0,7.81h3.25a7.91,7.91,0,0,0,3.88-.69,2.52,2.52,0,0,0,1.13-2.31,2.54,2.54,0,0,0-1.08-2.32A7.5,7.5,0,0,0,200,9.79h-3.39Z"/><path class="cls-1" d="M222.1,15.79a3.08,3.08,0,0,1,1.44.21.91.91,0,0,1,.32.8,1,1,0,0,1-.32.83,2.37,2.37,0,0,1-1.26.23h-7a2.32,2.32,0,0,1-1.26-.23,1,1,0,0,1-.31-.83.88.88,0,0,1,.35-.8,3.12,3.12,0,0,1,1.42-.21h2.13V10.93l-4.88-8.34h-.25a2.27,2.27,0,0,1-1.2-.23,1,1,0,0,1-.32-.82,1.06,1.06,0,0,1,.27-.8,1.19,1.19,0,0,1,.84-.26h4a2,2,0,0,1,1.17.24,1,1,0,0,1,.3.82.91.91,0,0,1-.36.82,2.67,2.67,0,0,1-1.31.23h-.48L219,9l3.68-6.36h-.6a1.93,1.93,0,0,1-1.1-.23,1,1,0,0,1-.31-.82,1.06,1.06,0,0,1,.27-.84,2.51,2.51,0,0,1,1.33-.22h2.69a2.83,2.83,0,0,1,1.43.23,1,1,0,0,1,.32.83,1,1,0,0,1-.32.82,2.2,2.2,0,0,1-1.19.23h-.24l-5,8.54v4.66Z"/></g></g></svg>